<svg xmlns="http://www.w3.org/2000/svg"  viewBox="0 0 48 48" width="48px" height="48px"><path fill="#d6e5e5" d="M21.29,5.977c2.051,0.395,4.159,0.324,6.247,0.252c-0.305,2.261-0.405,4.55-0.299,6.83 c-1.193-0.042-2.385-0.084-3.578-0.126c-0.708-0.025-2.023,0.236-2.414-0.509c-0.397-0.758-0.26-2.1-0.262-2.926 C20.982,8.318,21.084,7.139,21.29,5.977z"/><path d="M27.237,13.559c-0.006,0-0.012,0-0.018,0l-3.577-0.125c-0.14-0.005-0.303,0.003-0.479,0.01 c-0.806,0.036-1.906,0.082-2.36-0.787c-0.381-0.726-0.352-1.787-0.329-2.64c0.005-0.186,0.01-0.361,0.01-0.518 c-0.002-1.211,0.104-2.425,0.313-3.609c0.023-0.132,0.099-0.249,0.209-0.325c0.109-0.076,0.245-0.105,0.378-0.079 c2.001,0.386,4.101,0.313,6.134,0.243c0.157-0.011,0.289,0.055,0.389,0.164c0.099,0.109,0.145,0.256,0.124,0.402 c-0.299,2.224-0.398,4.492-0.295,6.74c0.007,0.139-0.045,0.275-0.144,0.375C27.499,13.505,27.371,13.559,27.237,13.559z M23.556,12.432c0.042,0,0.083,0,0.122,0.002l3.039,0.106c-0.062-1.933,0.021-3.875,0.249-5.792 c-1.731,0.057-3.511,0.084-5.265-0.192c-0.146,0.969-0.219,1.956-0.217,2.94c0,0.165-0.005,0.35-0.01,0.546 c-0.019,0.698-0.045,1.654,0.215,2.149c0.159,0.306,0.892,0.274,1.433,0.252C23.276,12.438,23.424,12.432,23.556,12.432z"/><path fill="#d6e5e5" d="M9.001,11.798c3.276,1.095,6.835,0.048,10.288,0.004c2.688-0.034,5.375,0.548,8.052,0.301 c0.271,2.25,0.448,4.512,0.532,6.777c-1.24,0.071-2.464-0.376-3.704-0.314c-0.44,0.022-0.874,0.108-1.311,0.162 c-0.638,0.08-1.282,0.093-1.925,0.106c-1.323,0.027-2.645,0.054-3.968,0.08c-0.922,0.019-1.846,0.037-2.764-0.056 c-0.995-0.101-1.971-0.329-2.963-0.455c-0.568-0.072-2.101,0.206-2.389-0.345c-0.165-0.317,0.028-1.03,0.049-1.373 c0.033-0.528,0.058-1.057,0.077-1.585C9.015,13.999,9.023,12.898,9.001,11.798z"/><path d="M15.842,19.428c-0.561,0-1.127-0.017-1.69-0.074c-0.562-0.057-1.12-0.154-1.677-0.251c-0.432-0.075-0.863-0.15-1.298-0.206 c-0.144-0.017-0.357-0.008-0.597,0c-0.811,0.027-1.823,0.062-2.173-0.61c-0.196-0.374-0.117-0.88-0.048-1.326 c0.018-0.119,0.036-0.227,0.041-0.31c0.032-0.523,0.057-1.048,0.076-1.573c0.038-1.096,0.047-2.197,0.024-3.272 c-0.003-0.163,0.072-0.317,0.204-0.413c0.131-0.097,0.302-0.123,0.454-0.071c2.127,0.711,4.372,0.477,6.748,0.228 c1.105-0.116,2.249-0.235,3.375-0.25c1.184-0.018,2.35,0.085,3.488,0.183c1.492,0.127,3.036,0.259,4.525,0.12 c0.267-0.023,0.51,0.169,0.542,0.438c0.271,2.255,0.452,4.549,0.536,6.817c0.01,0.272-0.199,0.502-0.472,0.518 c-0.68,0.04-1.336-0.062-1.974-0.161c-0.603-0.092-1.169-0.18-1.735-0.152c-0.277,0.014-0.553,0.056-0.828,0.096 c-0.148,0.022-0.297,0.044-0.445,0.062c-0.663,0.083-1.33,0.097-1.975,0.11l-3.97,0.08C16.603,19.42,16.223,19.428,15.842,19.428z M10.964,17.89c0.131,0,0.246,0.004,0.338,0.016c0.45,0.057,0.897,0.135,1.344,0.212c0.534,0.093,1.067,0.187,1.607,0.241 c0.888,0.09,1.81,0.072,2.703,0.054l3.968-0.08c0.62-0.013,1.261-0.026,1.873-0.102c0.141-0.018,0.281-0.039,0.421-0.059 c0.309-0.046,0.616-0.091,0.926-0.106c0.667-0.033,1.312,0.067,1.938,0.163c0.438,0.068,0.858,0.133,1.272,0.152 c-0.083-1.913-0.235-3.841-0.452-5.744c-1.416,0.084-2.838-0.038-4.216-0.156c-1.114-0.095-2.268-0.193-3.39-0.179 c-1.081,0.014-2.201,0.131-3.284,0.244c-2.153,0.224-4.371,0.456-6.501-0.079c0.008,0.875-0.004,1.763-0.034,2.648 c-0.02,0.534-0.046,1.066-0.078,1.599c-0.007,0.108-0.027,0.249-0.051,0.402c-0.03,0.194-0.094,0.599-0.051,0.717 c0.14,0.105,0.918,0.078,1.249,0.066C10.695,17.894,10.837,17.89,10.964,17.89z"/><path d="M21.386,18.596l-0.998-0.059c0.135-2.297,0.379-4.62,0.727-6.902l0.988,0.15C21.76,14.037,21.519,16.329,21.386,18.596z"/><path d="M14.307,17.977l0.491-0.091l-0.493,0.084c-0.182-0.979-0.369-1.991-0.415-3.018c-0.007-0.167-0.011-0.335-0.015-0.504 c-0.015-0.639-0.028-1.243-0.244-1.767l0.924-0.381c0.287,0.696,0.304,1.423,0.32,2.125c0.003,0.162,0.007,0.322,0.014,0.482 c0.043,0.958,0.224,1.935,0.399,2.88L14.307,17.977z"/><path fill="#d6e5e5" d="M7.196,17.759c4.554-0.292,9.121-0.23,13.684-0.168c2.325,0.032,4.649,0.063,6.974,0.095 c1.716,0.023,3.447,0.048,5.121,0.424c0.452,2.054,0.624,4.17,0.511,6.271c-4.839,1.323-9.925,1.348-14.942,1.363 c-3.282,0.01-6.58,0.019-9.823-0.484c-1.925-0.298-3.817-0.775-5.691-1.307c-0.154-0.044-0.133-2.491-0.143-2.758 c-0.034-0.96-0.075-1.929-0.051-2.89c0.027-1.037,0.725-0.568,1.528-0.495C5.307,17.896,6.255,17.82,7.196,17.759z"/><path d="M17.204,26.247c-2.829,0-5.721-0.053-8.559-0.493c-2.148-0.332-4.202-0.88-5.752-1.319 c-0.445-0.127-0.487-0.37-0.502-2.886c-0.001-0.166-0.002-0.287-0.004-0.335l-0.012-0.329c-0.029-0.848-0.061-1.725-0.039-2.591 c0.004-0.166,0.018-0.671,0.383-0.96c0.362-0.286,0.812-0.188,1.209-0.104c0.151,0.032,0.313,0.068,0.481,0.083 c0.821,0.075,1.68,0.019,2.51-0.036l0.244-0.016l0,0c4.573-0.293,9.223-0.229,13.723-0.169l6.975,0.095 c1.716,0.023,3.49,0.048,5.224,0.437c0.189,0.042,0.337,0.191,0.379,0.38c0.462,2.1,0.638,4.254,0.521,6.405 c-0.012,0.215-0.159,0.398-0.367,0.455c-4.935,1.35-10.088,1.365-15.071,1.381C18.102,26.245,17.653,26.247,17.204,26.247z M3.445,23.551c2.126,0.595,3.786,0.972,5.353,1.214c3.211,0.498,6.532,0.483,9.745,0.479c4.8-0.015,9.758-0.03,14.461-1.252 c0.069-1.833-0.081-3.666-0.449-5.459c-1.539-0.303-3.148-0.325-4.707-0.347l-6.975-0.095c-4.481-0.061-9.113-0.124-13.645,0.167 l-0.242,0.016c-0.869,0.058-1.769,0.116-2.666,0.035c-0.209-0.019-0.412-0.061-0.601-0.101c-0.116-0.025-0.28-0.06-0.375-0.065 c0.003,0.028-0.006,0.087-0.008,0.176c-0.021,0.836,0.009,1.697,0.039,2.53l0.012,0.33c0.002,0.051,0.003,0.184,0.004,0.365 C3.397,22.547,3.415,23.22,3.445,23.551z"/><path d="M8.309,24.761c-0.089-0.654,0.013-1.285,0.11-1.894c0.036-0.229,0.073-0.458,0.099-0.686 c0.069-0.624,0.056-1.28,0.041-1.915l-0.063-2.778l1-0.022l0.063,2.778c0.015,0.668,0.03,1.358-0.047,2.048 c-0.027,0.245-0.066,0.489-0.105,0.733c-0.091,0.562-0.176,1.094-0.107,1.603L8.309,24.761z"/><path d="M15.275,24.515l-0.998-0.055c0.125-2.277,0.135-4.584,0.028-6.855l0.998-0.047C15.413,19.863,15.403,22.204,15.275,24.515z"/><g><path d="M21.723,23.727l-1-0.041c0.087-2.093,0.238-4.214,0.45-6.307l0.994,0.101C21.958,19.552,21.809,21.654,21.723,23.727z"/></g><g><path d="M26.834,24.118c-0.15-1.831-0.278-3.663-0.384-5.496c-0.019-0.323-0.049-0.862,0.32-1.263l0.736,0.677 c-0.083,0.09-0.066,0.387-0.059,0.529c0.105,1.824,0.233,3.648,0.382,5.47L26.834,24.118z"/></g><g><path fill="#4b7bb2" d="M36.021,17.979c-0.137-1.37-0.211-2.87,1.131-3.177c1.013-0.232,1.995,0.51,2.626,1.335 c0.791,1.035,1.306,2.28,1.476,3.572c1.538-0.28,3.182-0.55,4.619,0.065c1.437,0.615,2.056,2.519,1.19,3.821 c-0.481,0.724-0.985,1.031-1.832,1.223c-1.707,0.387-3.502,0.382-5.207-0.014c-0.998,4.746-4.214,10.719-7.727,14.063 c-2.023,1.926-4.253,3.755-6.915,4.602c-0.946,0.301-1.928,0.472-2.91,0.619c-2.829,0.424-5.724,0.658-8.543,0.167 c-4.087-0.711-7.88-2.993-10.424-6.269s-3.17-9.489-2.847-13.625c0.016-0.209,0.046-0.438,0.199-0.582 c0.153-0.143,0.382-0.159,0.591-0.165c6.263-0.19,11.787-0.282,18.05-0.115c3.896,0.104,8.222-0.686,12.053,0.032 c1.532,0.287,4.007-0.474,5.617-1.021C37.734,22.319,36.213,19.894,36.021,17.979z"/><path d="M17.318,45.029c-1.138,0-2.31-0.078-3.474-0.281c-4.204-0.732-8.116-3.085-10.732-6.455 c-2.538-3.269-3.312-9.371-2.951-13.971c0.017-0.217,0.049-0.62,0.355-0.907c0.301-0.281,0.702-0.293,0.919-0.3 c6.29-0.191,11.771-0.283,18.078-0.115c1.419,0.039,2.942-0.047,4.415-0.129c2.579-0.145,5.244-0.294,7.716,0.17 c1.448,0.271,4.011-0.548,5.129-0.923c-0.063-0.274-0.254-0.77-0.401-1.151c-0.334-0.869-0.75-1.951-0.848-2.938l0,0 c-0.115-1.15-0.329-3.292,1.517-3.713c1.046-0.242,2.223,0.326,3.135,1.519c0.741,0.969,1.251,2.099,1.488,3.294 c1.364-0.237,2.964-0.429,4.406,0.187c0.841,0.36,1.48,1.094,1.755,2.014c0.265,0.889,0.139,1.815-0.346,2.543 c-0.533,0.804-1.133,1.207-2.138,1.434c-1.612,0.367-3.311,0.396-4.938,0.089c-1.146,4.85-4.355,10.592-7.762,13.835 c-1.913,1.822-4.254,3.807-7.107,4.716c-0.991,0.315-2.021,0.492-2.987,0.636C21.035,44.809,19.225,45.029,17.318,45.029z M12.875,23.912c-3.755,0-7.418,0.082-11.409,0.202c-0.15,0.005-0.241,0.017-0.271,0.034c-0.004,0.011-0.023,0.073-0.038,0.253 C0.824,28.665,1.541,34.639,3.901,37.68c2.467,3.176,6.153,5.394,10.115,6.084c2.973,0.517,6.042,0.181,8.383-0.17 c0.925-0.139,1.908-0.307,2.833-0.601c2.659-0.847,4.89-2.743,6.721-4.487c3.391-3.228,6.58-9.033,7.582-13.804l0.104-0.5 l0.498,0.115c1.629,0.38,3.353,0.383,4.983,0.015c0.751-0.171,1.137-0.426,1.525-1.013c0.32-0.48,0.399-1.102,0.22-1.705 c-0.186-0.625-0.631-1.141-1.189-1.38c-1.346-0.576-3.002-0.275-4.333-0.033l-0.518,0.094l-0.068-0.521 c-0.159-1.212-0.635-2.365-1.377-3.334c-0.249-0.326-1.131-1.374-2.117-1.151c-0.828,0.189-0.901,1.074-0.745,2.639 c0.086,0.853,0.475,1.865,0.787,2.678c0.384,0.998,0.615,1.6,0.415,2.027c-0.078,0.167-0.217,0.291-0.39,0.35 c-1.741,0.592-4.247,1.342-5.87,1.039c-2.355-0.442-4.957-0.296-7.477-0.155c-1.491,0.083-3.028,0.172-4.498,0.131 C17.201,23.938,15.023,23.912,12.875,23.912z"/></g></svg>